<svg xmlns="http://www.w3.org/2000/svg" viewBox="0 0 409.54 409.54"><g id="Zelda_Bundle" data-name="Zelda Bundle"><path d="M314.4,135.15a12.27,12.27,0,0,0-12.27-12.27H213.84V105.4h9.46a8.42,8.42,0,1,0,0-16.83H186.24a8.42,8.42,0,1,0,0,16.83h9.46v17.48H107.41a12.27,12.27,0,0,0-12.27,12.27v9H314.4Z"/><path d="M348.8,196.17,346.08,189v-8a11.52,11.52,0,0,0-11.52-11.51H75a11.51,11.51,0,0,0-11.51,11.51v8l-2.73,7.13A6.92,6.92,0,0,0,71.56,204l8.65-7a10,10,0,0,1,6.28-2.23H92a3.19,3.19,0,0,1,3.19,3.19v95.77A27.27,27.27,0,0,0,122.4,321H287.14a27.27,27.27,0,0,0,27.26-27.26V198a3.19,3.19,0,0,1,3.19-3.2h5.46a10,10,0,0,1,6.29,2.23l8.64,7a6.92,6.92,0,0,0,10.82-7.84Z"/></g></svg>