<svg xmlns="http://www.w3.org/2000/svg" viewBox="0 0 409.54 409.54"><g id="Zelda_Bundle" data-name="Zelda Bundle"><polygon points="104.26 84.89 95.58 157.84 79.02 179.53 39.59 124.72 104.26 84.89"/><polygon points="290.91 84.89 299.59 157.84 316.15 179.53 355.58 124.72 290.91 84.89"/><path d="M272.25,84.89H231.76l-34.18,33.65L163.41,84.89H122.92L99.26,324.65H295.91ZM235.1,219.78l-6.32,10.46L197.1,211.11l-31.67,19.13-6.32-10.46L185.28,204l-26.17-15.82,6.32-10.46,31.67,19.13,31.68-19.13,6.32,10.46L208.92,204Zm0-57.16-6.32,10.46L197.1,153.94l-31.67,19.14-6.32-10.46,26.17-15.82L159.11,131l6.32-10.46,31.67,19.14,31.68-19.14L235.1,131,208.92,146.8Z"/></g></svg>