<svg xmlns="http://www.w3.org/2000/svg" viewBox="0 0 409.54 409.54"><g id="Zelda_Bundle" data-name="Zelda Bundle"><path d="M333.08,245.38l-27.84-16.07a6.53,6.53,0,0,1-3.26-5.65V185.88a6.53,6.53,0,0,1,3.26-5.65l27.84-16.07a6.79,6.79,0,0,0,2.48-9.28l-22.19-38.43a6.79,6.79,0,0,0-9.28-2.49L276.25,130a6.49,6.49,0,0,1-6.52,0L237,111.14a6.52,6.52,0,0,1-3.27-5.65V73.35a6.8,6.8,0,0,0-6.79-6.8H182.58a6.8,6.8,0,0,0-6.79,6.8v32.14a6.52,6.52,0,0,1-3.27,5.65L139.81,130a6.49,6.49,0,0,1-6.52,0L105.45,114a6.79,6.79,0,0,0-9.28,2.49L74,154.88a6.79,6.79,0,0,0,2.48,9.28l27.84,16.07a6.53,6.53,0,0,1,3.26,5.65v37.78a6.53,6.53,0,0,1-3.26,5.65L76.46,245.38A6.79,6.79,0,0,0,74,254.66l22.19,38.43a6.79,6.79,0,0,0,9.28,2.49l27.84-16.07a6.49,6.49,0,0,1,6.52,0l32.71,18.89a6.52,6.52,0,0,1,3.27,5.65v32.14a6.8,6.8,0,0,0,6.79,6.8H227a6.8,6.8,0,0,0,6.79-6.8V304.05A6.52,6.52,0,0,1,237,298.4l32.71-18.89a6.49,6.49,0,0,1,6.52,0l27.84,16.07a6.79,6.79,0,0,0,9.28-2.49l22.19-38.43A6.79,6.79,0,0,0,333.08,245.38Zm-123,11.38a52.26,52.26,0,1,1,46.66-46.66A52.28,52.28,0,0,1,210.1,256.76Z"/></g></svg>